<?xml version="1.0" encoding="utf-8"?>
<!-- Generator: Adobe Illustrator 25.2.0, SVG Export Plug-In . SVG Version: 6.00 Build 0)  -->
<svg version="1.1" id="Capa_1" xmlns="http://www.w3.org/2000/svg" xmlns:xlink="http://www.w3.org/1999/xlink" x="0px" y="0px"
	 viewBox="0 0 18.9 18.9" style="enable-background:new 0 0 18.9 18.9;" xml:space="preserve">
<style type="text/css">
	.st0{fill:#3E5623;}
</style>
<g>
	<path class="st0" d="M15.8,2.2H3.6c-0.7,0-1.4,0.6-1.4,1.4v12.2c0,0.5,0.4,0.9,0.9,0.9h12.7c0.5,0,0.9-0.4,0.9-0.9V3.1
		C16.6,2.6,16.2,2.2,15.8,2.2z M8.9,13.4c-1,0-1.7-0.2-2.1-0.5l0.3-1.4c0.3,0.2,1,0.4,1.7,0.4c0.8,0,1.5-0.4,1.5-1.2
		c0-0.8-0.6-1.3-2.2-1.3c-0.5,0-0.7,0-1,0.1l0.5-4.1h4.3V7h-3L8.7,8.2c0.2,0,0.3,0,0.5,0c0.7,0,1.5,0.2,2.1,0.6s1,1,1,1.9
		C12.1,12.2,10.9,13.4,8.9,13.4z"/>
</g>
</svg>
