<?xml version="1.0" encoding="utf-8"?>
<!-- Generator: Adobe Illustrator 25.2.0, SVG Export Plug-In . SVG Version: 6.00 Build 0)  -->
<svg version="1.1" id="Capa_1" xmlns="http://www.w3.org/2000/svg" xmlns:xlink="http://www.w3.org/1999/xlink" x="0px" y="0px"
	 viewBox="0 0 26 26" style="enable-background:new 0 0 26 26;" xml:space="preserve">
<style type="text/css">
	.st0{display:none;}
	.st1{display:inline;fill:#030104;}
	.st2{fill:#3E5623;}
	.st3{fill:#FFFFFF;}
</style>
<g>
	<g class="st0">
		<path class="st1" d="M21.1,2C22.7,2,24,3.3,24,4.9v16.2c0,1.6-1.3,2.9-2.9,2.9H4.9C3.3,24,2,22.7,2,21.1V4.9C2,3.3,3.3,2,4.9,2
			H21.1 M21.1,0H4.9C2.2,0,0,2.2,0,4.9v16.2C0,23.8,2.2,26,4.9,26h16.2c2.7,0,4.9-2.2,4.9-4.9V4.9C26,2.2,23.8,0,21.1,0L21.1,0z"/>
	</g>
	<g>
		<path class="st2" d="M21.7,2.4h-17c-1,0-1.9,0.8-1.9,1.9v17c0,0.7,0.6,1.2,1.2,1.2h17.6c0.7,0,1.2-0.6,1.2-1.2V3.8
			C22.8,3,22.3,2.4,21.7,2.4z"/>
	</g>
</g>
<path class="st3" d="M11.4,7.7v10.8H8.6v-7.1c-0.5,0.4-1,0.7-1.4,0.8c-0.4,0.3-1,0.4-1.6,0.7v-2.5c1-0.3,1.8-0.7,2.3-1.2
	c0.5-0.4,1-1,1.4-1.6L11.4,7.7L11.4,7.7z M19,7.7v10.8h-2.9v-7.1c-0.5,0.4-1,0.7-1.4,0.8c-0.4,0.3-1,0.4-1.6,0.7v-2.5
	c1-0.3,1.8-0.7,2.3-1.2c0.5-0.4,1-1,1.4-1.6L19,7.7L19,7.7z"/>
</svg>
