<?xml version="1.0" encoding="utf-8"?>
<!-- Generator: Adobe Illustrator 25.2.0, SVG Export Plug-In . SVG Version: 6.00 Build 0)  -->
<svg version="1.1" id="Capa_1" xmlns="http://www.w3.org/2000/svg" xmlns:xlink="http://www.w3.org/1999/xlink" x="0px" y="0px"
	 viewBox="0 0 15.6 15.6" style="enable-background:new 0 0 15.6 15.6;" xml:space="preserve">
<style type="text/css">
	.st0{display:none;fill:#3E5623;}
	.st1{fill:#3E5623;}
	.st2{display:none;fill:#030104;}
	.st3{fill:#FFFFFF;}
</style>
<g>
	<g>
		<rect x="-0.1" y="0.4" class="st0" width="15.8" height="15.8"/>
		<path class="st1" d="M12.8,1.4H3.1C2.3,1.4,1.7,2,1.7,2.8v9.7c0,0.8,0.6,1.4,1.4,1.4h9.7c0.8,0,1.4-0.6,1.4-1.4V2.8
			C14.2,2,13.5,1.4,12.8,1.4z"/>
		<path class="st2" d="M14.2,0.4H1.7C1,0.4,0.4,1,0.4,1.7v12.5c0,0.7,0.6,1.3,1.3,1.3h12.5c0.7,0,1.3-0.6,1.3-1.3V1.7
			C15.5,1,14.9,0.4,14.2,0.4z M14.4,14.2c0,0.1-0.1,0.2-0.2,0.2H1.7c-0.1,0-0.2-0.1-0.2-0.2V1.7c0-0.1,0.1-0.2,0.2-0.2h12.5
			c0.1,0,0.2,0.1,0.2,0.2V14.2z"/>
		<path class="st3" d="M9.6,4.5H7.8L5.5,8.3v1h2.8v1.5h1.4V9.3h0.8V8.2H9.6L9.6,4.5L9.6,4.5z M8.2,6.8v1.4H6.8l0,0l0.8-1.4
			C7.9,6.4,8,6.1,8.2,5.6h0.1C8.2,6.1,8.2,6.4,8.2,6.8z"/>
	</g>
</g>
</svg>
