<?xml version="1.0" standalone="no"?>
<!DOCTYPE svg PUBLIC "-//W3C//DTD SVG 20010904//EN"
 "http://www.w3.org/TR/2001/REC-SVG-20010904/DTD/svg10.dtd">
<svg version="1.0" xmlns="http://www.w3.org/2000/svg"
 width="1919.000000pt" height="1919.000000pt" viewBox="0 0 1919.000000 1919.000000"
 preserveAspectRatio="xMidYMid meet">
<metadata>
Created by potrace 1.11, written by Peter Selinger 2001-2013
</metadata>
<g transform="translate(0.000000,1919.000000) scale(0.100000,-0.100000)"
fill="#000000" stroke="none">
<path d="M8338 19185 c-1 -1 -30 -6 -63 -9 -153 -16 -197 -31 -247 -84 -40
-41 -67 -110 -63 -157 8 -99 26 -125 165 -235 277 -221 507 -503 695 -854 l46
-86 -63 34 c-119 64 -281 124 -388 142 -14 3 -34 7 -45 11 -68 21 -218 31
-400 28 -110 -2 -218 -6 -240 -10 -302 -48 -528 -109 -759 -205 -134 -56 -188
-122 -187 -231 0 -114 46 -166 211 -238 186 -81 286 -138 400 -230 59 -47 125
-99 146 -116 53 -41 341 -282 384 -321 19 -17 62 -55 95 -84 268 -237 509
-475 577 -570 168 -233 290 -433 428 -705 65 -129 94 -192 176 -381 7 -17 32
-82 54 -145 81 -225 91 -248 123 -275 91 -76 219 -77 299 -1 80 75 91 142 48
287 -31 104 -93 274 -132 359 -10 24 -27 64 -38 90 -10 25 -43 99 -74 164 -53
110 -69 162 -82 262 -6 48 -8 62 -39 230 -36 192 -79 314 -187 530 -62 125
-199 339 -265 414 -286 326 -596 493 -978 526 -77 7 -84 10 -203 83 -77 48
-118 79 -110 83 7 4 45 12 83 18 663 101 1103 -102 1350 -624 69 -145 141
-373 169 -537 14 -82 114 -161 205 -161 96 0 177 50 214 132 17 38 18 57 13
150 -4 58 -9 122 -11 141 -2 19 -7 64 -10 100 -16 163 -54 360 -118 601 -26
96 -113 350 -152 439 -30 70 -37 99 -39 165 -7 190 -62 429 -136 593 -16 34
-27 62 -24 62 3 0 28 -21 56 -47 111 -104 185 -255 213 -433 2 -14 7 -41 10
-60 4 -19 6 -98 6 -175 0 -77 5 -159 10 -181 23 -90 114 -156 213 -156 63 0
111 21 159 69 59 58 66 97 62 306 -3 189 -6 211 -31 337 -82 402 -334 704
-710 850 -86 33 -239 74 -319 86 -27 3 -59 9 -70 11 -22 6 -421 13 -427 8z"/>
<path d="M11169 18516 c-2 -2 -26 -6 -54 -10 -376 -45 -720 -324 -915 -742
-92 -198 -108 -261 -85 -339 36 -127 188 -194 307 -137 65 32 82 55 139 187
87 204 146 295 265 411 72 70 153 121 236 149 42 14 42 14 18 -3 -115 -79
-263 -238 -368 -396 -87 -132 -97 -151 -137 -252 -25 -64 -46 -98 -84 -137
-236 -245 -489 -604 -644 -912 -30 -60 -73 -146 -95 -190 -22 -44 -50 -105
-62 -135 -12 -30 -28 -69 -35 -85 -38 -86 -125 -393 -125 -439 0 -12 7 -45 15
-72 46 -157 256 -206 371 -86 37 39 54 82 79 205 25 122 169 454 258 595 243
389 576 630 962 697 17 2 39 7 51 9 110 22 391 23 514 1 14 -2 41 -6 60 -9 93
-13 305 -66 425 -105 l60 -20 -50 5 c-27 3 -61 7 -75 9 -138 20 -524 28 -655
13 -92 -11 -148 -18 -175 -24 -14 -3 -36 -8 -50 -11 -54 -10 -173 -43 -242
-68 -205 -74 -376 -182 -528 -335 -239 -238 -386 -553 -459 -980 -19 -108 -20
-111 -77 -186 -174 -225 -199 -269 -197 -355 1 -47 25 -101 63 -139 l38 -38
-39 -26 c-143 -95 -129 -311 26 -386 62 -30 123 -27 242 9 54 17 109 32 123
35 14 3 72 14 130 26 69 14 123 20 157 16 140 -15 509 -123 718 -211 22 -9 58
-24 80 -33 166 -68 561 -285 753 -414 196 -131 500 -361 622 -471 20 -18 71
-63 115 -101 98 -86 497 -484 585 -585 36 -41 88 -99 117 -129 49 -52 54 -54
90 -49 47 8 73 38 73 86 0 35 2 33 55 -54 63 -104 108 -149 162 -164 124 -35
244 26 283 143 18 54 14 474 -5 666 -28 273 -27 261 -45 375 -6 33 -12 71 -14
85 -2 14 -7 36 -10 50 -3 14 -8 37 -10 52 -2 15 -18 81 -36 148 -180 703 -529
1192 -1063 1489 -233 129 -569 228 -872 257 -157 15 -550 8 -646 -11 -13 -3
-40 -7 -59 -9 -86 -9 -281 -50 -346 -72 -64 -22 -101 -50 -132 -104 -48 -81
-32 -197 36 -266 33 -32 97 -66 107 -56 5 4 5 1 1 -5 -4 -7 -16 -13 -27 -13
-26 0 -168 -44 -379 -118 -30 -11 -91 -23 -135 -26 -70 -5 -151 -16 -235 -31
-14 -3 -42 -8 -64 -12 l-39 -6 62 84 c222 302 565 655 827 850 32 24 61 47 64
50 3 3 59 42 125 86 368 247 743 414 1145 512 69 16 139 32 155 35 36 5 118
19 125 21 4 1 76 9 185 21 17 2 89 4 160 5 105 1 139 5 176 21 61 26 98 65
119 128 36 106 0 204 -96 266 -144 92 -571 284 -839 377 -99 34 -393 110 -470
122 -36 5 -67 10 -129 21 -139 25 -509 25 -636 0 -23 -5 -22 -3 10 25 41 35
232 163 305 204 203 116 429 208 639 261 119 30 162 52 197 102 83 115 49 255
-80 337 -236 149 -484 245 -771 300 -40 8 -334 17 -341 11z m1056 -3571 c639
-100 1085 -456 1325 -1060 78 -196 153 -480 175 -665 3 -30 8 -67 11 -82 2
-16 3 -28 0 -28 -2 0 -31 33 -64 73 -68 81 -98 115 -149 170 -21 23 -43 63
-55 100 -23 72 -84 238 -103 282 -7 17 -25 59 -40 95 -77 185 -205 411 -315
558 -155 205 -311 342 -503 441 -175 90 -292 115 -592 127 -88 4 -162 9 -165
11 -11 11 381 -7 475 -22z"/>
<path d="M6685 16464 c-249 -43 -425 -127 -665 -319 -14 -11 -72 -67 -128
-124 -317 -320 -607 -839 -822 -1468 -52 -155 -55 -178 -24 -214 12 -13 9 -32
-26 -132 -130 -382 -165 -533 -136 -601 46 -109 162 -164 276 -130 59 18 82
39 176 164 80 107 298 334 389 406 28 21 52 41 55 44 3 3 32 26 65 51 422 319
929 510 1450 546 167 11 394 6 550 -12 111 -13 131 -16 145 -20 13 -3 38 -8
115 -20 198 -30 531 -132 830 -253 109 -44 157 -48 227 -19 165 69 176 315 17
397 -61 32 -276 115 -424 165 -223 74 -531 150 -694 170 -30 4 -62 8 -72 10
-10 2 -49 7 -86 10 -37 4 -84 9 -103 12 -64 8 -434 10 -530 2 -137 -12 -233
-24 -340 -44 -427 -79 -834 -246 -1207 -497 -57 -37 -103 -66 -103 -63 0 3 20
47 43 98 l44 93 104 61 c226 132 492 256 744 347 93 33 317 100 368 110 12 2
54 11 92 20 39 10 86 19 105 22 19 3 41 7 47 9 7 2 43 7 80 11 38 3 71 8 75
10 26 16 473 24 613 11 184 -18 274 -35 298 -58 56 -53 151 -77 224 -57 25 7
49 5 91 -7 84 -25 87 -25 120 -5 57 35 52 83 -19 186 -16 23 -31 56 -34 74
-11 65 -47 110 -221 276 -98 93 -189 180 -204 194 -118 114 -315 249 -496 340
-110 56 -326 138 -408 156 -261 57 -457 73 -601 48z"/>
<path d="M9110 14132 c-47 -12 -89 -24 -95 -26 -5 -1 -30 -8 -55 -15 -101 -28
-379 -125 -532 -184 -166 -66 -190 -76 -358 -154 l-95 -44 -25 29 c-14 16 -49
56 -77 90 -61 70 -165 142 -242 167 -165 54 -366 7 -528 -124 -62 -50 -84 -84
-90 -141 -5 -50 51 -162 113 -223 52 -52 147 -103 209 -113 40 -6 84 -12 98
-13 5 -1 -11 -17 -35 -37 -23 -20 -66 -58 -94 -85 -29 -27 -56 -49 -61 -49 -4
0 -34 19 -65 43 -53 39 -140 80 -198 93 -54 12 -169 11 -234 -3 -90 -19 -196
-69 -279 -134 -115 -88 -132 -145 -78 -264 39 -85 118 -168 196 -205 80 -39
132 -49 231 -46 58 2 81 -1 77 -8 -4 -6 -35 -54 -68 -106 -154 -238 -254 -443
-287 -590 -55 -243 89 -483 289 -482 138 0 279 90 335 215 58 128 55 236 -12
429 l-38 107 62 87 c33 48 66 89 71 91 6 1 18 -14 28 -35 55 -114 209 -223
382 -272 165 -47 237 -24 288 90 65 146 50 304 -44 447 -49 75 -155 184 -226
231 -29 19 -53 38 -53 42 0 9 42 46 125 109 l70 53 13 -77 c19 -115 62 -196
157 -290 59 -59 101 -92 160 -122 74 -38 166 -71 190 -68 67 8 115 44 160 120
80 136 78 302 -5 467 -38 76 -107 175 -149 212 -11 11 -21 22 -21 26 0 11 232
111 380 164 25 8 89 31 143 50 l98 34 -5 -31 c-3 -18 -15 -75 -26 -127 -11
-52 -25 -117 -30 -145 -5 -27 -18 -95 -29 -150 -11 -55 -22 -116 -25 -135 -8
-47 -15 -89 -22 -122 -3 -15 -7 -39 -9 -55 -2 -15 -6 -41 -9 -58 -6 -34 -12
-71 -21 -135 -11 -75 -14 -93 -20 -140 -3 -25 -8 -56 -10 -70 -2 -14 -9 -65
-15 -115 -6 -49 -13 -101 -15 -115 -2 -14 -6 -54 -10 -90 -4 -36 -8 -76 -10
-90 -2 -14 -6 -54 -10 -90 -4 -36 -8 -76 -10 -90 -4 -31 -18 -187 -30 -345 -3
-44 -7 -102 -10 -130 -9 -102 -21 -335 -32 -590 -10 -236 -10 -1214 0 -1430
10 -210 16 -314 22 -405 3 -41 8 -106 10 -145 4 -65 8 -106 20 -225 2 -25 7
-85 10 -135 3 -49 8 -117 10 -150 16 -229 16 -244 0 -274 -29 -56 -44 -59
-335 -57 -294 1 -305 4 -353 68 -35 48 -49 96 -62 221 -4 32 -8 66 -10 76 -2
10 -6 42 -10 72 -3 30 -8 65 -10 79 -2 14 -6 50 -10 80 -4 30 -8 66 -10 80 -2
14 -7 50 -10 80 -4 30 -8 64 -10 75 -1 11 -8 66 -14 122 -24 208 -74 329 -180
433 -134 132 -279 180 -529 175 -81 -2 -158 -5 -172 -8 -14 -2 -43 -7 -65 -11
-175 -28 -404 -85 -526 -131 -246 -94 -412 -211 -510 -361 -62 -94 -76 -165
-73 -369 2 -146 13 -212 43 -280 62 -137 197 -225 391 -254 145 -22 320 -29
1192 -45 42 -1 79 -4 83 -7 3 -4 14 -35 24 -70 66 -227 215 -384 424 -444 88
-25 101 -26 417 -27 246 0 306 3 360 17 99 26 177 72 256 151 l71 72 83 -59
c45 -32 87 -59 93 -59 6 0 18 -6 26 -14 25 -21 169 -73 256 -91 71 -15 167
-17 855 -17 426 -1 802 2 835 6 132 16 285 85 389 178 l53 47 59 -58 c96 -92
217 -150 350 -167 31 -3 181 -7 333 -6 290 0 350 6 451 50 137 59 267 181 324
305 63 138 60 102 64 687 3 480 1 539 -14 578 -68 180 -321 189 -405 15 l-23
-48 -1 -495 c-1 -482 -2 -496 -22 -535 -12 -22 -32 -50 -45 -62 -50 -46 -78
-50 -336 -50 -262 -1 -309 5 -359 43 -56 42 -120 203 -192 480 -26 101 -61
204 -91 269 -97 210 -281 394 -493 493 -72 34 -206 76 -272 85 -22 3 -92 15
-155 26 -63 11 -131 23 -150 26 -28 5 -352 61 -580 101 -19 3 -46 9 -60 12
-14 3 -50 5 -80 5 -229 -1 -301 -307 -99 -418 22 -12 87 -26 229 -51 19 -3
136 -23 260 -44 124 -22 306 -53 405 -70 270 -46 343 -74 451 -173 89 -81 170
-219 188 -322 3 -17 8 -41 11 -55 9 -46 7 -145 -5 -190 -23 -91 -107 -176
-198 -203 -68 -20 -1495 -22 -1593 -2 -169 34 -326 164 -412 340 -51 104 -67
173 -82 355 -4 41 -8 91 -10 110 -2 19 -6 82 -10 140 -3 58 -8 132 -10 165 -4
58 -14 279 -20 455 -4 106 -4 968 0 1070 11 291 17 432 20 480 2 30 7 98 10
150 12 186 24 346 30 400 2 19 7 71 10 115 4 44 8 91 10 105 2 14 7 52 10 85
3 33 8 76 10 95 3 19 12 94 20 165 9 72 18 141 20 155 3 21 41 278 50 345 2
11 9 52 15 90 7 39 14 79 15 90 6 44 24 135 65 340 17 83 32 160 34 172 3 11
14 64 25 117 12 53 24 113 27 134 3 20 8 40 10 43 2 3 6 20 9 37 3 18 7 46 10
64 3 17 8 35 11 39 3 5 6 37 8 72 8 135 -81 238 -209 242 -27 0 -88 -10 -135
-23z m-1836 -5053 c69 -18 96 -63 111 -179 3 -25 7 -63 10 -85 3 -22 8 -65 11
-95 3 -30 10 -82 15 -115 5 -33 9 -66 9 -73 0 -10 -39 -11 -177 -7 -98 2 -317
7 -488 10 -170 4 -357 7 -414 9 -127 2 -136 9 -127 103 13 151 135 273 341
341 96 32 365 86 490 98 33 3 61 7 62 8 6 5 123 -6 157 -15z"/>
<path d="M9791 13859 c-85 -38 -128 -110 -166 -279 -1 -8 -8 -35 -15 -60 -7
-25 -14 -52 -15 -60 -2 -8 -13 -58 -25 -110 -12 -52 -26 -117 -31 -145 -6 -27
-12 -59 -15 -70 -11 -54 -25 -132 -38 -210 -20 -117 -46 -288 -50 -330 -4 -27
-8 -66 -11 -85 -6 -48 -16 -140 -29 -290 -27 -295 -27 -838 -1 -1095 11 -116
18 -173 21 -189 2 -11 8 -54 14 -96 6 -42 13 -87 15 -101 3 -13 8 -37 10 -54
3 -16 8 -37 10 -45 2 -8 7 -31 10 -50 19 -120 62 -193 134 -230 109 -55 251
-6 302 105 23 49 24 107 3 205 -16 78 -19 90 -34 180 -16 91 -20 123 -35 255
-33 301 -33 712 0 1120 3 33 7 76 10 95 2 19 7 60 10 90 8 78 15 131 20 160 2
14 7 50 10 80 3 30 8 62 10 70 2 8 7 35 10 60 17 125 87 465 98 476 8 8 141
-109 305 -269 l123 -120 -48 -20 c-69 -29 -201 -117 -252 -168 -118 -118 -168
-273 -135 -418 14 -60 35 -93 78 -125 24 -18 42 -21 144 -21 240 0 426 91 528
256 20 32 38 59 39 59 10 0 115 -188 115 -205 0 -6 -13 -12 -29 -13 -57 -4
-216 -63 -292 -107 -167 -98 -250 -227 -250 -387 -1 -117 41 -174 142 -197 86
-19 105 -21 189 -21 107 1 134 4 212 31 70 23 120 50 159 86 35 32 45 18 61
-80 l11 -75 -55 -59 c-148 -157 -186 -210 -217 -307 -25 -79 -30 -131 -19
-202 19 -122 109 -247 215 -300 50 -25 70 -29 143 -29 74 0 92 4 143 29 171
87 260 261 260 506 -1 74 -13 251 -18 260 -2 4 -6 35 -10 70 -3 34 -7 66 -9
69 -3 4 -7 25 -10 47 -4 22 -9 51 -11 64 -3 14 -8 41 -11 60 -3 19 -9 39 -12
44 -3 5 1 7 9 3 8 -3 43 -18 79 -33 57 -25 78 -28 171 -29 101 0 108 1 180 37
78 39 164 113 180 155 31 83 -32 216 -165 346 -83 82 -182 135 -284 154 -58
11 -191 5 -248 -12 -29 -8 -54 -15 -57 -15 -5 0 -107 207 -107 217 0 2 5 1 11
-2 25 -16 119 -31 177 -29 154 6 317 112 336 217 19 105 -140 315 -297 391
-84 41 -106 47 -206 51 -100 4 -177 -16 -294 -74 l-97 -49 -48 51 c-222 239
-565 548 -793 714 -96 71 -179 88 -258 52z"/>
<path d="M6577 10324 c-56 -17 -123 -79 -150 -137 -60 -126 11 -319 141 -383
54 -28 145 -25 202 5 57 29 116 99 131 154 26 95 -11 235 -80 303 -64 64 -156
86 -244 58z"/>
<path d="M7165 10322 c-82 -40 -127 -118 -128 -225 0 -89 14 -141 56 -203 90
-134 249 -149 379 -35 100 87 108 250 19 367 -52 69 -125 106 -215 111 -55 3
-80 0 -111 -15z"/>
<path d="M10517 10214 c-1 -1 -22 -5 -46 -9 -93 -14 -184 -82 -219 -164 -23
-55 -19 -142 9 -192 102 -185 419 -173 509 18 56 120 6 256 -119 322 -21 12
-127 31 -134 25z"/>
<path d="M12715 10061 c-135 -36 -215 -123 -221 -242 -8 -147 121 -256 291
-245 148 10 250 101 262 236 5 50 2 67 -20 113 -30 60 -54 85 -112 117 -44 25
-147 35 -200 21z"/>
<path d="M6791 6018 c0 -520 -3 -758 -11 -793 -23 -103 -87 -171 -180 -190
-50 -11 -248 -8 -289 4 -75 23 -137 93 -157 176 -3 17 -8 165 -10 330 -2 165
-3 308 -4 317 0 16 -13 17 -119 17 l-120 0 -3 -332 c-3 -313 -5 -335 -25 -378
-35 -77 -89 -120 -168 -135 -52 -9 -879 -9 -930 0 -83 16 -134 60 -166 145
-24 61 -27 128 -28 509 l-1 192 -127 0 -128 0 0 -477 c0 -494 -4 -576 -30
-678 -23 -86 -50 -138 -105 -198 -70 -77 -166 -123 -294 -142 -22 -3 -42 -7
-44 -10 -3 -2 -5 -57 -6 -121 l-1 -116 80 6 c265 21 451 149 554 381 41 91 77
216 84 290 3 24 17 24 117 -3 70 -19 105 -21 550 -21 503 -1 553 3 654 48 25
11 66 36 92 55 l46 36 38 -30 c104 -82 214 -112 412 -109 155 1 232 15 324 58
121 56 187 149 219 306 17 86 17 79 16 1093 l-1 512 -120 0 -119 0 0 -742z"/>
<path d="M7210 5775 l0 -985 120 0 120 0 0 985 0 985 -120 0 -120 0 0 -985z"/>
<path d="M8240 6383 c-47 -24 -73 -74 -76 -143 -3 -68 21 -128 60 -154 38 -24
113 -34 161 -22 88 24 119 68 118 170 0 112 -48 161 -163 165 -46 1 -75 -4
-100 -16z"/>
<path d="M8620 6382 c-51 -28 -74 -73 -74 -146 -1 -75 15 -116 57 -147 27 -20
43 -24 107 -24 125 0 170 41 175 158 3 74 -20 128 -66 156 -43 26 -153 28
-199 3z"/>
<path d="M10783 5919 c-90 -17 -167 -78 -200 -159 -14 -35 -18 -70 -17 -160 1
-141 20 -223 80 -345 43 -89 61 -115 131 -187 21 -23 30 -38 22 -39 -110 -6
-563 1 -594 10 -78 21 -123 65 -149 146 -24 76 -24 79 -25 397 l-1 298 -120
-1 -120 -2 -1 -296 c0 -163 -3 -309 -5 -326 -15 -99 -56 -163 -130 -200 l-54
-28 -303 0 c-167 0 -308 2 -313 5 -6 4 -9 174 -9 427 l0 421 -112 0 -113 0 0
-29 c0 -22 -6 -32 -22 -37 -41 -13 -233 -106 -293 -142 -149 -89 -287 -234
-340 -357 -37 -87 -44 -120 -45 -218 -2 -119 65 -222 180 -275 48 -22 69 -26
155 -26 121 1 248 11 293 23 17 5 32 8 32 5 0 -3 9 0 20 6 18 9 20 8 20 -15
l0 -26 453 3 452 3 73 27 c40 14 97 44 126 66 l52 40 69 -46 c41 -28 99 -55
144 -68 74 -22 90 -23 511 -23 423 0 503 5 550 34 5 3 29 -1 52 -9 24 -8 59
-17 78 -20 19 -3 389 -6 821 -6 764 0 787 0 852 20 36 11 69 25 72 30 14 22
33 9 30 -20 l-3 -30 1091 2 1091 3 7 40 c4 22 10 67 14 100 3 32 8 63 11 66 5
9 11 3 -303 327 -338 348 -357 367 -429 418 -199 142 -411 169 -644 83 -68
-25 -218 -103 -255 -133 l-27 -22 66 -82 c37 -45 70 -82 74 -82 4 0 23 10 42
22 131 80 280 131 357 121 68 -8 137 -32 200 -69 78 -46 587 -554 557 -555
-73 -3 -1705 -1 -1708 2 -3 2 2 33 11 69 20 85 12 257 -17 355 -31 109 -85
209 -151 280 -93 98 -175 140 -300 151 -215 18 -362 -94 -416 -317 -15 -61
-18 -116 -17 -306 0 -160 -3 -233 -10 -234 -14 -1 -776 -1 -795 0 -8 1 10 25
39 54 169 168 244 332 244 532 0 127 -16 175 -79 238 -69 67 -90 70 -525 72
-212 1 -404 -2 -427 -6z m677 -211 c89 -23 134 -94 129 -202 -9 -181 -117
-341 -317 -470 l-72 -47 -57 32 c-70 40 -155 107 -209 165 -133 144 -185 366
-107 462 50 61 89 69 360 69 130 0 252 -4 273 -9z m1384 -72 c93 -28 153 -99
186 -220 47 -173 6 -302 -117 -362 -49 -24 -62 -26 -208 -27 -85 0 -158 3
-162 7 -15 15 -12 328 4 391 46 189 143 257 297 211z m-4092 -326 c0 -149 -3
-274 -6 -277 -3 -4 -77 -6 -165 -6 -169 2 -215 11 -252 55 -19 22 -20 25 -24
92 -4 85 82 199 223 295 67 46 213 123 220 117 2 -2 4 -126 4 -276z"/>
<path d="M5745 4635 c-67 -24 -102 -96 -92 -188 12 -98 65 -141 174 -140 115
1 167 55 166 174 -1 59 -5 74 -27 104 -15 19 -36 40 -48 46 -33 18 -129 20
-173 4z"/>
<path d="M9559 4640 c-78 -22 -116 -89 -106 -190 6 -72 32 -112 85 -133 50
-20 141 -15 184 10 93 53 94 242 2 295 -34 20 -123 29 -165 18z"/>
<path d="M9940 4636 c-75 -23 -109 -73 -110 -163 -1 -104 57 -165 159 -168
126 -4 183 48 184 170 0 72 -21 119 -69 147 -38 22 -118 29 -164 14z"/>
<path d="M14257 4576 c-21 -6 -49 -21 -62 -34 -69 -67 -54 -236 25 -277 44
-23 109 -29 161 -15 80 21 111 69 111 167 -1 73 -21 118 -68 145 -38 22 -117
29 -167 14z"/>
<path d="M3881 3914 c-16 -21 -18 -30 -10 -52 12 -31 26 -42 56 -42 48 0 72
70 35 103 -27 24 -58 21 -81 -9z"/>
<path d="M4030 3920 c-11 -11 -20 -28 -20 -38 0 -29 29 -62 56 -62 29 0 64 32
64 60 0 11 -9 29 -20 40 -11 11 -29 20 -40 20 -11 0 -29 -9 -40 -20z"/>
<path d="M6120 3681 l0 -256 -37 2 c-21 1 -47 2 -59 2 -39 2 -55 23 -58 82 -4
68 -29 123 -71 155 -37 28 -62 35 -121 35 -89 0 -148 -52 -185 -163 -13 -39
-34 -81 -45 -93 -19 -21 -26 -22 -60 -15 -39 9 -74 40 -74 67 0 45 -90 156
-155 190 l-29 16 89 46 90 46 1 63 c0 37 -4 62 -10 62 -6 0 -76 -35 -156 -78
l-145 -77 0 -64 0 -65 52 -30 c110 -66 162 -131 130 -163 -13 -13 -37 -16
-125 -16 -138 0 -179 8 -187 34 -4 11 -7 64 -7 118 l-1 99 -36 4 c-20 1 -47 2
-61 0 l-25 -3 1 -183 c1 -190 -8 -245 -41 -247 -8 -1 -19 -3 -25 -4 -5 -1 -17
-3 -25 -4 -11 -1 -15 -14 -15 -57 l0 -55 62 5 c106 10 153 57 164 166 1 14 2
29 3 33 1 4 10 3 22 -4 14 -7 75 -10 179 -7 144 3 161 5 188 25 l29 21 22 -21
c19 -19 33 -22 111 -22 68 0 93 4 105 16 15 15 20 14 57 -4 78 -39 183 -30
240 20 16 14 20 13 48 -11 30 -25 36 -26 156 -26 l124 0 0 308 0 307 -60 1
-60 0 0 -255z m-294 -119 c23 -33 25 -92 4 -117 -19 -23 -72 -28 -113 -12 -33
14 -35 17 -27 49 12 54 32 89 59 103 35 18 53 13 77 -23z"/>
<path d="M6349 3931 c-1 -3 -2 -142 -3 -308 l-1 -303 60 0 60 0 0 307 0 307
-57 1 c-32 1 -59 -1 -59 -4z"/>
<path d="M6863 3932 c-21 -13 -32 -56 -20 -78 31 -58 107 -39 107 26 0 43 -52
74 -87 52z"/>
<path d="M6994 3916 c-18 -26 -18 -46 2 -74 19 -28 57 -29 84 -2 26 26 25 54
-2 79 -26 25 -65 23 -84 -3z"/>
<path d="M8792 3924 c-43 -30 -17 -104 36 -104 27 0 62 33 62 60 0 23 -37 60
-60 60 -8 0 -26 -7 -38 -16z"/>
<path d="M8938 3923 c-27 -31 -30 -57 -8 -81 12 -12 31 -22 44 -22 52 0 76 75
34 104 -29 21 -51 20 -70 -1z"/>
<path d="M9782 3925 c-4 -5 -7 -121 -7 -258 0 -278 4 -299 65 -329 47 -24 190
-25 229 -2 25 15 30 15 66 -1 83 -36 182 -28 233 18 l22 20 26 -24 c24 -22 33
-24 134 -24 88 0 111 3 127 17 18 17 21 17 58 -2 33 -17 59 -20 165 -20 l125
0 0 303 c0 196 -3 304 -10 308 -5 4 -32 6 -60 5 l-50 -1 0 -250 0 -250 -35 -5
c-43 -7 -117 3 -131 17 -6 6 -11 58 -10 122 l0 111 -60 0 c-40 0 -59 -4 -60
-12 0 -7 -1 -59 -1 -116 -1 -120 -5 -126 -83 -124 -81 1 -91 10 -98 86 -12
128 -71 186 -191 186 -76 0 -129 -37 -165 -115 -16 -33 -31 -72 -35 -86 -11
-48 -39 -73 -81 -71 -21 1 -43 6 -49 12 -7 7 -11 95 -12 248 -1 130 -2 240 -3
243 -2 11 -102 5 -109 -6z m515 -376 c42 -80 -28 -151 -115 -117 -27 11 -36
19 -34 34 17 119 105 168 149 83z"/>
<path d="M11130 3628 l0 -308 60 0 60 0 0 308 0 308 -60 0 -60 -1 0 -307z"/>
<path d="M11641 3921 c-25 -25 -27 -49 -5 -79 19 -28 57 -29 84 -2 35 35 20
83 -32 95 -19 5 -32 1 -47 -14z"/>
<path d="M11785 3916 c-22 -22 -23 -28 -14 -55 19 -54 89 -54 107 -1 9 24 7
34 -9 55 -26 32 -53 32 -84 1z"/>
<path d="M12085 3931 c-3 -2 -5 -111 -5 -242 0 -275 3 -266 -94 -263 -91 3
-86 -6 -86 159 0 131 -2 145 -17 146 -118 6 -197 -2 -237 -22 -51 -25 -84 -76
-90 -139 -10 -113 59 -182 182 -182 37 1 51 -4 68 -23 32 -37 66 -45 187 -45
85 1 121 5 147 18 33 16 37 16 70 0 31 -16 71 -18 405 -18 l371 0 0 180 c0 99
-4 180 -8 181 -4 0 -24 1 -43 1 -77 0 -71 11 -70 -127 0 -95 -3 -125 -12 -126
-7 0 -31 -1 -53 -1 -77 0 -87 2 -87 15 -1 31 -14 91 -29 125 -46 111 -172 160
-313 122 l-41 -11 0 -55 0 -54 28 7 c44 12 124 9 160 -6 37 -16 72 -73 72
-118 l0 -28 -176 2 c-151 1 -178 4 -195 19 -18 16 -19 34 -19 253 l0 236 -55
0 c-31 1 -58 -1 -60 -4z m-305 -366 c0 -36 -3 -66 -7 -66 -52 -8 -66 -6 -85
13 -40 40 1 118 63 118 l29 0 0 -65z"/>
<path d="M14440 3628 l0 -308 60 0 60 0 0 308 0 307 -60 1 -60 0 0 -308z"/>
<path d="M7525 3910 c-16 -8 -85 -45 -152 -80 l-123 -65 0 -66 0 -65 43 -21
c53 -27 123 -87 142 -123 12 -23 12 -30 1 -45 -12 -16 -30 -18 -160 -17 -81 0
-150 3 -154 7 -4 3 -7 69 -7 146 0 98 -4 142 -12 147 -7 4 -53 7 -102 5 -107
-2 -166 -24 -202 -74 -33 -46 -35 -163 -3 -205 31 -42 85 -65 150 -65 49 0 60
-4 76 -24 31 -39 78 -47 268 -43 147 2 181 6 213 22 37 18 38 18 58 0 29 -26
170 -30 206 -7 22 14 27 14 65 -3 28 -12 65 -19 108 -19 56 0 73 4 110 29 37
24 45 26 54 14 23 -31 56 -38 175 -38 l121 0 0 180 0 180 -60 0 -60 0 0 -127
0 -128 -62 2 c-75 3 -92 17 -94 77 -3 65 -21 110 -59 147 -45 44 -85 57 -152
48 -91 -12 -133 -59 -187 -211 -13 -34 -24 -49 -45 -56 -42 -15 -87 8 -107 55
-43 101 -71 137 -157 199 l-29 20 86 42 c47 23 87 47 87 54 3 25 0 120 -3 122
-2 1 -16 -5 -33 -14z m-539 -288 c8 -6 11 -67 5 -117 -1 -15 -48 -17 -72 -4
-57 30 -29 129 35 129 12 0 26 -4 32 -8z m998 -57 c31 -48 21 -115 -20 -133
-34 -16 -59 -15 -95 3 -25 14 -28 20 -24 46 9 51 34 90 68 104 37 15 50 11 71
-20z"/>
<path d="M9576 3879 c-29 -23 -34 -60 -10 -83 25 -25 71 -24 91 2 41 54 -28
123 -81 81z"/>
<path d="M12440 3892 c-64 -20 -65 -98 -2 -114 15 -4 31 1 49 16 21 18 24 27
19 53 -7 31 -39 54 -66 45z"/>
<path d="M12882 3878 c-34 -44 -10 -100 43 -100 46 0 69 47 45 93 -12 22 -71
27 -88 7z"/>
<path d="M13755 3752 c-75 -35 -123 -119 -110 -194 7 -42 36 -70 105 -105 60
-31 74 -58 43 -85 -43 -39 -235 -47 -306 -13 -53 25 -67 51 -69 128 l-2 65
-60 -2 -61 -1 2 -77 c3 -141 70 -212 224 -236 169 -26 342 20 390 103 48 83
25 146 -70 195 -69 34 -84 53 -68 87 14 32 70 46 135 32 17 -4 33 -4 33 0 5
26 4 93 -2 102 -4 7 -38 14 -75 16 -53 3 -78 -1 -109 -15z"/>
<path d="M3952 3728 c-97 -16 -142 -66 -149 -161 -3 -48 0 -70 15 -97 28 -51
91 -83 161 -82 44 0 58 -4 69 -19 26 -37 66 -49 164 -49 71 0 100 4 122 18 29
17 31 17 70 -3 53 -26 157 -27 204 -2 17 10 44 36 59 58 22 33 26 51 26 107 0
124 -70 203 -183 204 -99 0 -159 -54 -199 -181 -18 -56 -28 -74 -49 -84 -26
-13 -99 -14 -111 -2 -3 4 -6 69 -6 145 0 76 -3 141 -6 145 -9 9 -141 11 -187
3z m73 -161 c0 -33 -3 -63 -6 -69 -8 -13 -68 -3 -85 14 -42 43 -6 116 57 114
l34 -1 0 -58z m516 17 c6 -3 17 -21 25 -40 11 -27 12 -40 1 -71 -10 -32 -18
-39 -50 -47 -29 -7 -45 -6 -71 7 -31 14 -34 19 -29 49 12 81 75 133 124 102z"/>
<path d="M8877 3733 c-1 0 -16 -3 -33 -6 -41 -6 -63 -19 -97 -54 -33 -36 -45
-75 -42 -136 4 -93 74 -150 182 -148 43 0 55 -4 63 -19 20 -38 75 -51 207 -49
99 1 130 5 160 20 21 11 39 15 43 10 13 -22 69 -31 186 -31 l124 0 -2 182 -3
181 -37 0 c-86 -2 -78 11 -78 -128 l0 -125 -25 -1 c-14 0 -38 -1 -55 -1 -97 0
-100 5 -100 143 l0 109 -60 0 -60 0 0 -114 c0 -90 -3 -116 -15 -126 -17 -14
-154 -18 -174 -6 -7 5 -11 59 -11 152 0 121 -2 144 -15 145 -33 2 -157 4 -158
2z m53 -169 c0 -69 -12 -81 -64 -68 -75 19 -51 129 28 131 l36 1 0 -64z"/>
<path d="M14155 3684 c-22 -15 -44 -30 -49 -35 -5 -5 18 -49 54 -104 44 -67
60 -99 53 -106 -6 -6 -51 -11 -99 -11 -121 0 -119 1 -119 -58 l0 -50 130 0
c108 0 136 3 165 19 45 23 66 79 51 131 -11 39 -129 240 -140 240 -3 0 -24
-12 -46 -26z"/>
<path d="M14791 3694 c-81 -24 -131 -95 -131 -189 0 -120 65 -185 187 -185 36
0 44 -3 41 -16 -7 -39 -62 -60 -160 -63 -26 -1 -27 -3 -25 -53 l2 -53 65 0
c36 1 82 4 103 9 54 10 112 66 132 127 l17 49 141 0 142 0 0 177 0 178 -30 5
c-16 3 -44 3 -61 2 l-32 -4 2 -124 c1 -93 -2 -124 -11 -125 -17 -1 -96 -1
-126 0 -21 1 -23 6 -25 59 -1 63 -23 136 -50 165 -41 46 -111 62 -181 41z m86
-116 c18 -20 35 -135 21 -144 -20 -12 -80 -6 -98 11 -31 28 -28 107 4 133 31
24 51 24 73 0z"/>
<path d="M8310 3247 c-38 -19 -47 -43 -30 -74 22 -38 53 -46 84 -22 39 30 34
74 -10 97 -15 8 -27 8 -44 -1z"/>
<path d="M15209 3246 c-29 -15 -40 -47 -26 -76 27 -53 99 -40 105 18 5 53 -33
81 -79 58z"/>
<path d="M9186 3228 c-22 -30 -20 -54 5 -77 38 -35 99 -7 99 44 0 51 -75 74
-104 33z"/>
<path d="M9336 3234 c-26 -26 -17 -76 16 -92 51 -24 100 25 76 76 -16 33 -66
42 -92 16z"/>
<path d="M10547 3232 c-23 -25 -21 -58 3 -82 26 -26 46 -25 75 5 29 28 31 42
9 73 -19 27 -64 29 -87 4z"/>
<path d="M10693 3238 c-48 -61 23 -137 82 -88 20 16 19 64 -1 84 -19 19 -68
21 -81 4z"/>
<path d="M13524 3159 c-20 -22 -22 -63 -4 -84 18 -22 77 -19 90 4 14 28 12 67
-5 81 -23 19 -63 19 -81 -1z"/>
<path d="M13671 3159 c-41 -38 -15 -99 42 -99 55 0 76 89 24 106 -38 13 -45
13 -66 -7z"/>
<path d="M3767 2502 c-11 -2 -17 -13 -17 -33 l0 -29 5844 0 5843 0 -2 23 c-1
12 -3 27 -4 32 -1 9 -11617 16 -11664 7z"/>
<path d="M6320 1795 l-44 -45 39 -35 c22 -19 47 -35 56 -35 19 0 99 56 99 69
0 9 -90 91 -100 91 -3 0 -26 -20 -50 -45z"/>
<path d="M12249 1823 c-9 -10 -30 -40 -47 -68 l-31 -50 25 -26 c15 -16 26 -42
30 -70 3 -24 7 -51 10 -58 3 -8 8 -48 11 -88 l6 -73 -73 0 c-96 0 -101 7 -94
120 l5 85 -45 -49 c-40 -43 -45 -55 -48 -100 l-3 -51 -123 -3 -122 -3 20 33
c11 18 20 41 20 51 0 65 -93 128 -177 120 -69 -6 -94 -22 -130 -83 -41 -67
-41 -78 -3 -72 25 4 100 -29 100 -44 0 -2 -52 -4 -116 -4 l-115 0 22 39 c18
33 21 49 16 93 -8 68 -40 101 -90 91 -70 -13 -218 -139 -233 -197 -6 -25 -9
-26 -79 -26 l-72 0 18 38 c20 41 22 52 20 100 -2 48 -50 95 -88 86 -75 -17
-213 -129 -235 -190 l-12 -34 -195 2 -194 3 -19 25 c-21 29 -26 69 -14 119 13
55 -15 33 -37 -30 -28 -79 -25 -151 7 -200 15 -22 37 -44 49 -48 12 -5 330 -9
705 -9 l684 0 18 30 18 30 16 -30 15 -29 143 -1 c150 0 163 3 179 46 l9 23 33
-35 33 -35 105 0 c176 1 174 1 204 -27 15 -14 32 -23 39 -21 6 3 20 28 30 56
23 66 15 88 -48 122 -48 25 -62 51 -66 124 -4 69 1 86 47 142 29 35 42 58 34
61 -38 13 -136 90 -141 110 -5 23 -6 23 -21 5z m-1413 -370 c15 -20 19 -52 7
-54 -62 -11 -139 9 -130 34 5 17 68 46 91 41 10 -2 24 -11 32 -21z m433 1 c35
-44 23 -64 -35 -64 -30 0 -84 26 -84 40 0 13 60 50 82 50 9 0 26 -12 37 -26z"/>
<path d="M6578 1780 l-37 -39 24 -19 c13 -11 38 -25 55 -32 29 -12 33 -11 58
13 l27 26 53 -26 53 -26 36 35 c20 20 33 42 30 50 -3 7 -25 24 -50 37 l-46 23
-34 -26 c-42 -32 -44 -32 -89 -1 -20 14 -38 25 -40 25 -2 0 -20 -18 -40 -40z"/>
<path d="M8801 1781 c-39 -35 -40 -38 -24 -53 17 -14 77 -48 86 -48 2 0 16 11
32 24 l27 24 54 -25 c52 -24 54 -24 78 -6 21 15 46 53 46 68 0 3 -23 16 -51
30 -53 27 -55 27 -97 -12 -19 -18 -33 -16 -73 11 l-36 25 -42 -38z"/>
<path d="M11836 1780 c-21 -22 -35 -43 -33 -47 3 -4 26 -19 50 -32 l45 -24 32
26 31 27 49 -25 c27 -14 51 -25 53 -25 9 0 56 47 66 67 10 19 6 23 -40 47 -52
28 -58 27 -97 -8 l-23 -20 -48 26 -47 27 -38 -39z"/>
<path d="M10681 1766 l-43 -43 34 -32 c47 -45 71 -49 114 -16 53 40 53 52 3
96 -24 21 -49 39 -54 39 -6 0 -30 -20 -54 -44z"/>
<path d="M11131 1770 c-22 -22 -41 -44 -41 -49 0 -14 76 -71 95 -71 21 0 95
57 94 73 0 13 -85 87 -98 87 -5 0 -27 -18 -50 -40z"/>
<path d="M5922 1757 c-23 -23 -42 -45 -42 -48 0 -3 27 -18 59 -34 l60 -28 40
44 c22 24 41 46 41 49 0 5 -104 60 -113 60 -2 0 -22 -19 -45 -43z"/>
<path d="M12604 1749 c-35 -56 -63 -119 -59 -133 4 -12 6 -22 36 -230 11 -77
21 -141 23 -143 1 -2 15 20 31 48 31 57 45 170 34 269 -17 146 -28 222 -34
228 -2 2 -16 -15 -31 -39z"/>
<path d="M7741 1590 c-17 -28 -31 -55 -31 -60 0 -5 16 -39 36 -75 l36 -65
-145 0 c-173 0 -177 2 -177 98 0 73 -11 74 -59 7 -21 -30 -31 -54 -29 -72 3
-27 1 -28 -45 -31 -28 -2 -46 1 -43 6 3 5 8 34 12 63 3 30 8 56 9 59 1 3 -1
13 -4 23 -6 16 -13 11 -44 -29 -21 -27 -40 -60 -43 -74 -11 -50 -11 -50 -74
-50 -33 0 -60 1 -60 3 0 1 7 24 15 51 8 27 15 65 15 85 l-1 36 -43 -47 c-30
-33 -45 -59 -50 -87 l-6 -41 -79 0 c-107 0 -108 2 -98 133 3 38 3 67 -2 65 -4
-2 -24 -22 -45 -46 -36 -40 -41 -54 -45 -129 -1 -23 -4 -23 -121 -23 -66 0
-120 3 -120 8 0 4 7 16 15 26 38 50 0 133 -73 157 -48 17 -77 18 -121 7 -58
-15 -89 -49 -121 -132 -8 -23 -7 -24 29 -19 30 4 43 0 67 -21 l29 -25 -116 -1
c-151 0 -146 -6 -136 147 5 72 -2 72 -55 5 -33 -41 -38 -54 -38 -99 l0 -53
-230 0 -230 0 -36 -56 c-20 -31 -34 -57 -32 -59 4 -3 83 -14 113 -15 11 0 36
-10 55 -22 l35 -21 -50 -14 c-27 -8 -86 -16 -130 -18 -87 -4 -142 12 -178 53
-42 46 -24 127 47 210 37 45 40 70 6 52 -49 -26 -129 -146 -153 -229 -27 -90
-3 -150 73 -187 44 -22 45 -22 69 -3 24 19 25 19 45 0 36 -32 61 -34 92 -8 23
20 32 22 55 14 20 -8 37 -7 70 6 57 22 89 51 123 110 15 26 35 47 44 48 10 0
46 1 82 0 91 0 106 4 120 39 12 28 30 41 30 21 0 -4 11 -20 24 -34 24 -26 25
-26 171 -25 l147 1 21 28 20 29 18 -29 17 -29 146 0 146 0 21 35 22 35 14 -26
c7 -14 21 -30 31 -35 28 -15 164 -13 194 3 21 11 28 11 31 2 6 -16 153 -19
180 -4 12 6 22 6 30 0 7 -6 48 -10 92 -9 61 0 83 4 92 16 10 15 12 14 18 0 6
-15 30 -17 205 -17 175 0 200 2 204 17 10 31 26 146 26 182 0 39 -48 145 -79
173 -18 16 -20 15 -50 -34z"/>
<path d="M13175 1606 c-40 -18 -60 -42 -78 -96 -18 -53 -15 -60 22 -60 52 0
54 -18 4 -82 -172 -224 -76 -436 192 -423 92 4 111 7 159 30 32 15 90 64 84
70 -2 2 -52 6 -113 9 -167 10 -198 16 -263 53 -93 53 -99 159 -15 238 40 37
56 32 88 -27 16 -29 33 -56 37 -59 5 -3 64 -7 131 -7 132 -1 144 3 167 58 l12
29 67 -25 c36 -14 82 -33 102 -43 l37 -17 33 50 c48 73 49 96 15 208 -29 95
-31 98 -59 98 -72 0 -170 -77 -214 -167 l-25 -53 -114 0 c-113 0 -135 6 -92
25 12 6 28 28 36 51 13 35 13 47 3 73 -24 56 -150 95 -216 67z m568 -138 c8
-29 6 -31 -33 -14 -30 12 -31 14 -14 24 29 17 41 14 47 -10z"/>
<path d="M9024 1568 c-52 -57 -58 -69 -60 -122 l-1 -51 -234 -3 -235 -2 -32
-53 c-38 -63 -40 -77 -9 -78 55 -1 114 -12 139 -27 32 -19 29 -27 -14 -37 -18
-4 -40 -10 -48 -12 -47 -14 -158 -8 -203 11 -103 42 -107 116 -12 240 39 51
41 56 22 56 -17 0 -75 -62 -115 -121 -85 -127 -78 -237 18 -293 60 -36 231
-28 345 16 43 16 73 46 107 106 16 28 37 52 46 53 10 0 55 1 102 0 l85 0 27
42 c15 23 28 35 28 26 0 -8 12 -27 28 -41 l27 -26 160 2 c160 2 160 2 230 36
73 36 94 38 240 30 l60 -4 38 54 c20 29 37 57 37 61 0 4 -15 11 -32 14 -61 13
-147 46 -220 85 -147 77 -208 82 -272 22 -25 -24 -76 -95 -76 -106 0 -3 16 2
36 10 41 17 73 13 147 -22 l51 -23 -28 -11 c-43 -16 -331 -13 -345 4 -7 9 -9
44 -6 105 3 50 4 91 2 91 -2 0 -17 -15 -33 -32z"/>
<path d="M7531 1128 l-31 -42 46 -29 c48 -29 50 -29 92 11 11 10 22 7 59 -15
l46 -27 34 39 c18 21 32 43 30 48 -1 5 -24 21 -50 35 l-47 27 -25 -27 c-27
-29 -40 -29 -87 4 -14 10 -28 18 -31 18 -3 0 -19 -19 -36 -42z"/>
<path d="M5322 1033 l-34 -38 23 -15 c12 -8 35 -20 50 -27 23 -10 30 -9 45 8
22 24 35 24 79 -1 40 -22 54 -19 94 24 24 25 24 27 6 40 -10 7 -34 22 -52 31
l-33 18 -30 -28 -29 -28 -40 26 c-23 15 -42 27 -43 27 -2 0 -18 -17 -36 -37z"/>
<path d="M8955 630 c-30 -32 -30 -34 12 -60 27 -16 29 -16 54 2 25 19 27 19
62 2 36 -17 37 -17 62 6 34 32 32 43 -11 64 -36 16 -37 16 -59 -4 l-22 -21
-35 20 -34 21 -29 -30z"/>
<path d="M8150 612 c-47 -23 -100 -95 -100 -135 0 -24 8 -39 31 -58 l32 -26
-32 -43 c-49 -69 -40 -100 43 -134 58 -24 85 -21 97 11 21 56 17 65 -35 83
-28 9 -51 21 -53 26 -2 6 12 28 30 50 55 65 55 79 0 108 -39 20 -42 33 -8 42
14 3 25 7 26 8 3 9 10 86 7 86 -1 0 -19 -8 -38 -18z"/>
<path d="M7353 612 c-7 -4 -17 -28 -24 -52 -11 -42 -10 -49 19 -107 17 -33 39
-99 48 -146 20 -101 27 -118 46 -99 22 22 15 187 -12 268 -27 85 -62 145 -77
136z"/>
<path d="M11632 597 c-30 -32 -28 -41 15 -61 35 -17 37 -17 56 3 20 19 20 19
59 -1 l39 -21 25 23 c32 31 30 45 -8 64 -39 20 -47 20 -70 -1 -19 -17 -21 -17
-50 0 -38 22 -40 22 -66 -6z"/>
<path d="M10902 581 l-33 -29 28 -26 c15 -14 34 -26 41 -26 20 0 62 31 62 46
0 12 -49 64 -60 64 -3 0 -20 -13 -38 -29z"/>
<path d="M7744 559 c-39 -20 -94 -136 -94 -201 0 -77 30 -102 114 -96 48 3
103 48 111 91 17 87 4 134 -49 190 -28 28 -47 32 -82 16z m58 -136 c34 -44 24
-63 -32 -63 -46 0 -65 20 -55 57 15 61 44 63 87 6z"/>
<path d="M9104 524 c-46 -24 -90 -77 -104 -124 -8 -27 -6 -35 15 -56 29 -29
88 -33 124 -8 19 14 25 14 32 3 14 -22 10 -39 -8 -40 -10 0 -81 0 -157 1 -160
1 -158 -1 -178 93 -14 65 -15 66 -111 40 -76 -20 -121 -52 -148 -104 -24 -47
-28 -80 -18 -129 4 -19 11 -62 14 -94 10 -82 10 -85 17 -91 3 -3 15 16 26 44
16 35 20 61 16 92 -18 159 -15 179 27 179 16 0 17 -2 4 -27 -13 -25 -12 -29 8
-51 19 -21 157 -92 177 -92 5 0 15 8 22 19 12 16 29 18 181 18 115 1 172 4
180 12 8 8 12 48 12 109 0 82 -4 105 -24 145 -30 62 -66 82 -107 61z m7 -84
c24 -13 25 -30 2 -30 -26 0 -47 16 -39 29 9 14 12 14 37 1z m-330 -118 c10
-26 -7 -30 -37 -7 -16 13 -17 16 -4 25 20 13 31 8 41 -18z"/>
<path d="M11748 448 l-25 -44 30 -52 29 -52 -39 -1 c-97 -2 -179 3 -195 12
-10 5 -33 32 -51 59 l-33 49 -26 -43 -26 -43 29 -43 c34 -51 30 -65 -39 -114
-62 -46 -116 -63 -150 -49 -15 6 -36 14 -47 18 l-20 8 20 -22 c25 -29 99 -67
147 -76 53 -10 88 13 132 89 21 36 43 63 48 60 8 -5 179 -8 264 -5 16 1 24 11
33 44 27 97 18 162 -29 218 l-26 32 -26 -45z"/>
<path d="M10676 419 c-21 -22 -30 -43 -32 -69 -1 -21 -4 -42 -7 -47 -3 -4 -37
-7 -76 -5 l-71 4 0 30 c0 55 -56 94 -125 89 -26 -3 -139 -57 -192 -93 -59 -40
-77 -37 -116 23 l-35 50 -27 -46 -27 -47 33 -60 c30 -58 31 -62 14 -75 -20
-14 -22 -14 -94 -18 -82 -5 -130 22 -131 73 0 25 23 77 47 104 10 11 11 18 3
23 -29 18 -109 -128 -110 -203 0 -55 33 -88 97 -98 107 -16 192 20 230 98 l23
45 242 1 c134 0 255 1 271 1 19 1 31 8 38 25 l11 24 22 -25 c21 -25 27 -26
127 -26 94 0 110 3 158 28 48 24 62 26 139 23 l85 -4 28 39 c30 42 30 57 -2
57 -11 0 -68 22 -127 49 -175 80 -194 78 -266 -32 l-20 -30 25 14 c13 7 34 12
47 10 35 -4 92 -30 92 -41 0 -10 -33 -12 -155 -10 -86 1 -94 10 -88 90 3 33 4
60 2 60 -2 0 -17 -14 -33 -31z m-285 -105 c6 -8 10 -14 8 -14 -43 -5 -179 -3
-179 2 0 4 23 15 52 26 55 21 94 16 119 -14z"/>
<path d="M9406 405 c-20 -47 -20 -57 2 -81 56 -64 55 -62 43 -91 -14 -33 -95
-101 -131 -110 -13 -3 -44 1 -67 9 -46 17 -63 9 -38 -15 16 -16 107 -53 149
-61 38 -7 81 27 112 89 51 106 40 208 -30 275 l-25 22 -15 -37z"/>
<path d="M10531 126 c-28 -29 -27 -38 8 -59 36 -21 36 -21 56 -1 15 15 19 15
50 -2 34 -18 34 -18 60 6 14 13 25 27 25 31 0 4 -16 17 -35 29 -35 21 -37 22
-56 4 -18 -16 -22 -16 -53 -1 -32 15 -35 15 -55 -7z"/>
</g>
</svg>
